<svg xmlns="http://www.w3.org/2000/svg" viewBox="0 0 576 512"><!--!Font Awesome Free 6.5.1 by @fontawesome - https://fontawesome.com License - https://fontawesome.com/license/free Copyright 2024 Fonticons, Inc.--><path fill="#2563eb" d="M543.8 287.6c17 0 32-14 32-32.1c1-9-3.7-16.8-10.6-23.7L427.9 44.5C417 33.6 401.9 28 386.3 28H384v-9c0-10.5-8.5-19-19-19h-32c-10.5 0-19 8.5-19 19v30.4l-15.6-15.6c-4.3-4.3-10-6.6-16.3-6.6c-11.7 0-22.1 7.2-26.6 17.6c-14.7-6.2-28.9-1.2-39.6 9.5l-192 192C17.2 272.5 12.5 280.3 13.5 289.4c1.1 18 16.1 30.2 34.1 30.2H96v152.5c0 22.1 17.9 40 40 40h72c6.6 0 12-5.4 12-12V368c0-8.8 7.2-16 16-16h80c8.8 0 16 7.2 16 16v132c0 6.6 5.4 12 12 12h72c22.1 0 40-17.9 40-40V319.6h47.8c9.1 0 17-3.9 22.1-10.2c8.8-10.8 7.7-27.1-3.1-37.9L288 88.7 514.9 315.6c4.5 4.5 10.6 7 16.9 7V464c0 26.5 21.5 48 48 48h16c26.5 0 48-21.5 48-48V313.3c3.7 1 7.6 1.7 11.5 1.7L543.8 287.6zM288 128.8l144 144V448H352V368c0-26.5-21.5-48-48-48H224c-26.5 0-48 21.5-48 48v80H96V272.8l158-158L288 128.8z"/></svg>
